<svg width="48" height="48" viewBox="0 0 48 48" fill="none" xmlns="http://www.w3.org/2000/svg">
<circle cx="24" cy="24" r="24" fill="#F5B329"/>
<path d="M24.0004 19.4482C22.4929 19.4477 21.0111 19.8395 19.7007 20.5849C18.3903 21.3304 17.2964 22.4039 16.5265 23.7001C15.7566 24.9962 15.3371 26.4704 15.3093 27.9777C15.2816 29.4851 15.6464 30.9737 16.368 32.2973L15.3398 35.9036C15.3036 36.0302 15.3026 36.1643 15.337 36.2914C15.3713 36.4186 15.4397 36.5339 15.5347 36.6251C15.6298 36.7162 15.7479 36.7798 15.8763 36.8088C16.0048 36.8379 16.1387 36.8313 16.2638 36.7899L19.6498 35.6617C20.8039 36.3286 22.0959 36.7211 23.4259 36.8087C24.7559 36.8964 26.0883 36.6769 27.3199 36.1673C28.5516 35.6577 29.6495 34.8716 30.5287 33.8698C31.4079 32.868 32.0448 31.6773 32.3903 30.39C32.7357 29.1026 32.7804 27.753 32.5208 26.4456C32.2612 25.1383 31.7044 23.9081 30.8933 22.8504C30.0823 21.7926 29.0388 20.9356 27.8435 20.3457C26.6483 19.7558 25.3333 19.4487 24.0004 19.4482ZM21.1039 26.6896C21.1039 26.4976 21.1802 26.3134 21.316 26.1776C21.4518 26.0418 21.636 25.9655 21.828 25.9655H26.1729C26.3649 25.9655 26.5491 26.0418 26.6849 26.1776C26.8207 26.3134 26.897 26.4976 26.897 26.6896C26.897 26.8817 26.8207 27.0659 26.6849 27.2017C26.5491 27.3375 26.3649 27.4138 26.1729 27.4138H21.828C21.636 27.4138 21.4518 27.3375 21.316 27.2017C21.1802 27.0659 21.1039 26.8817 21.1039 26.6896ZM21.828 28.862H24.7246C24.9166 28.862 25.1008 28.9383 25.2366 29.0741C25.3724 29.2099 25.4487 29.3941 25.4487 29.5862C25.4487 29.7782 25.3724 29.9624 25.2366 30.0982C25.1008 30.234 24.9166 30.3103 24.7246 30.3103H21.828C21.636 30.3103 21.4518 30.234 21.316 30.0982C21.1802 29.9624 21.1039 29.7782 21.1039 29.5862C21.1039 29.3941 21.1802 29.2099 21.316 29.0741C21.4518 28.9383 21.636 28.862 21.828 28.862Z" fill="#050B1A"/>
<path d="M23.9299 9.10352L9.93127 19.0345H13.8002L23.9299 11.812L31.8085 17.3678V19.0345H38.0692L23.9299 9.10352Z" fill="#050B1A"/>
</svg>
