<svg width="1504" height="359" viewBox="0 0 1504 359" fill="none" xmlns="http://www.w3.org/2000/svg">
<path d="M5.07748 358.879L24.879 353.923L19.9225 334.121L0.121002 339.077L5.07748 358.879ZM735.5 245.5L734.855 247.915L735.5 245.5ZM1481.44 74.4685C1481.15 73.1194 1479.82 72.2636 1478.47 72.5572C1477.12 72.8507 1476.26 74.1824 1476.56 75.5315L1481.44 74.4685ZM12.5 346.5L14.6441 347.786C64.4742 264.681 278.541 126.045 734.855 247.915L735.5 245.5L736.145 243.085C278.859 120.955 61.8591 259.319 10.3559 345.214L12.5 346.5ZM735.5 245.5L734.855 247.915C1020.64 324.241 1213.61 311.596 1332.05 264.574C1450.37 217.597 1494.81 135.925 1481.44 74.4685L1479 75L1476.56 75.5315C1489.19 133.575 1447.38 213.403 1330.2 259.926C1213.14 306.404 1021.36 319.259 736.145 243.085L735.5 245.5Z" fill="#F5B329"/>
<g clip-path="url(#clip0_2001_6)">
<path d="M1452.81 72.1155C1452.99 74.3955 1455.76 75.416 1457.37 73.801L1469.19 61.9887C1469.49 61.6921 1469.69 61.3147 1469.78 60.9034C1469.86 60.4921 1469.83 60.0651 1469.67 59.6753L1461.7 39.82C1461.47 39.2464 1462.24 38.8028 1462.62 39.2897L1475.83 56.1184C1476.09 56.4485 1476.44 56.6951 1476.83 56.8275C1477.23 56.9599 1477.66 56.9724 1478.07 56.8633L1494.21 52.531C1496.42 51.9378 1496.92 49.0315 1495.04 47.7362L1452.98 18.822C1451.13 17.5451 1448.62 18.9937 1448.79 21.2402L1452.81 72.1155Z" fill="#F5B329"/>
</g>
<defs>
<clipPath id="clip0_2001_6">
<rect width="60" height="60" fill="white" transform="translate(1452 81.9614) rotate(-120)"/>
</clipPath>
</defs>
</svg>
