<svg xmlns="http://www.w3.org/2000/svg" width="50" height="50" viewBox="0 0 50 50" fill="none">
  <g opacity="0.5">
    <path d="M25 31.8521L26.4354 30.4167L22.0604 26.0417H32.2917V23.9583H22.0604L26.4354 19.5833L25 18.1479L18.1479 25L25 31.8521ZM25.0063 43.75C22.4132 43.75 19.9757 43.2583 17.6937 42.275C15.4118 41.2903 13.4264 39.9542 11.7375 38.2667C10.0486 36.5792 8.71181 34.5958 7.72708 32.3167C6.74236 30.0375 6.25 27.6007 6.25 25.0063C6.25 22.4118 6.74236 19.9743 7.72708 17.6937C8.71042 15.4118 10.0444 13.4264 11.7292 11.7375C13.4139 10.0486 15.3979 8.71181 17.6813 7.72708C19.9646 6.74236 22.4021 6.25 24.9937 6.25C27.5854 6.25 30.0229 6.74236 32.3062 7.72708C34.5882 8.71042 36.5736 10.0451 38.2625 11.7312C39.9514 13.4174 41.2882 15.4014 42.2729 17.6833C43.2576 19.9653 43.75 22.4021 43.75 24.9937C43.75 27.5854 43.2583 30.0229 42.275 32.3062C41.2917 34.5896 39.9556 36.575 38.2667 38.2625C36.5778 39.95 34.5944 41.2868 32.3167 42.2729C30.0389 43.259 27.6021 43.7514 25.0063 43.75Z" fill="white"/>
  </g>
</svg>