<svg xmlns="http://www.w3.org/2000/svg" width="50" height="50" viewBox="0 0 50 50" fill="none">
  <g opacity="0.5">
    <path d="M25 31.8521L23.5646 30.4167L27.9396 26.0417H17.7083V23.9583H27.9396L23.5646 19.5833L25 18.1479L31.8521 25L25 31.8521ZM24.9937 43.75C27.5868 43.75 30.0243 43.2583 32.3063 42.275C34.5882 41.2903 36.5736 39.9542 38.2625 38.2667C39.9514 36.5792 41.2882 34.5958 42.2729 32.3167C43.2576 30.0375 43.75 27.6007 43.75 25.0063C43.75 22.4118 43.2576 19.9743 42.2729 17.6937C41.2896 15.4118 39.9556 13.4264 38.2708 11.7375C36.5861 10.0486 34.6021 8.71181 32.3187 7.72708C30.0354 6.74236 27.5979 6.25 25.0063 6.25C22.4146 6.25 19.9771 6.74236 17.6938 7.72708C15.4118 8.71042 13.4264 10.0451 11.7375 11.7312C10.0486 13.4174 8.71181 15.4014 7.72709 17.6833C6.74236 19.9653 6.25 22.4021 6.25 24.9937C6.25 27.5854 6.74167 30.0229 7.725 32.3062C8.70834 34.5896 10.0444 36.575 11.7333 38.2625C13.4222 39.95 15.4056 41.2868 17.6833 42.2729C19.9611 43.259 22.3979 43.7514 24.9937 43.75Z" fill="white"/>
  </g>
</svg>