<svg width="58" height="58" viewBox="0 0 58 58" fill="none" xmlns="http://www.w3.org/2000/svg">
<circle cx="29" cy="29" r="29" fill="#F5B329"/>
<path d="M32.065 42.3332C28.8506 42.3332 26.0989 41.4398 23.81 39.6532C21.5222 37.8676 19.9361 35.5987 19.0517 32.8465H13.2183V31.1798H18.7183C18.5917 30.5343 18.5356 29.7987 18.55 28.9732C18.5645 28.1476 18.62 27.4298 18.7167 26.8198H13.2167V25.1532H19.1167C19.9789 22.4021 21.5489 20.1332 23.8267 18.3465C26.1045 16.5598 28.85 15.6665 32.0633 15.6665C33.7245 15.6665 35.2967 15.9376 36.78 16.4798C38.2633 17.0221 39.6078 17.7721 40.8133 18.7298L39.625 19.8782C38.5761 19.0748 37.4111 18.4498 36.13 18.0032C34.8489 17.5565 33.4933 17.3332 32.0633 17.3332C29.2967 17.3332 26.9456 18.0848 25.01 19.5882C23.0745 21.0915 21.6983 22.9471 20.8817 25.1548H31.8717V26.8215H20.4267C20.2933 27.4859 20.23 28.2359 20.2367 29.0715C20.2433 29.9071 20.3067 30.6098 20.4267 31.1798H31.8717V32.8465H20.85C21.6867 35.0532 23.0733 36.9082 25.01 38.4115C26.9467 39.9148 29.2983 40.6665 32.065 40.6665C33.4939 40.6665 34.8489 40.4432 36.13 39.9965C37.4111 39.5498 38.5761 38.9248 39.625 38.1215L40.815 39.2698C39.6095 40.2287 38.265 40.9787 36.7817 41.5198C35.2983 42.0609 33.7261 42.3321 32.065 42.3332Z" fill="#050B1A"/>
</svg>
