<svg width="58" height="58" viewBox="0 0 58 58" fill="none" xmlns="http://www.w3.org/2000/svg">
<circle cx="29" cy="29" r="29" fill="#F5B329"/>
<path d="M28.9999 20.748C29.4421 20.748 29.8661 20.5724 30.1787 20.2598C30.4913 19.9472 30.6669 19.5232 30.6669 19.081C30.6669 18.6389 30.4913 18.2149 30.1787 17.9023C29.8661 17.5897 29.4421 17.414 28.9999 17.414C28.5578 17.414 28.1338 17.5897 27.8212 17.9023C27.5086 18.2149 27.3329 18.6389 27.3329 19.081C27.3329 19.5232 27.5086 19.9472 27.8212 20.2598C28.1338 20.5724 28.5578 20.748 28.9999 20.748ZM41 35.68V25H41.1839C42.9699 25 43.7039 22.704 42.2439 21.67L30.5439 13.366C30.0932 13.0448 29.5535 12.8721 28.9999 12.8721C28.4464 12.8721 27.9067 13.0448 27.4559 13.366L15.7519 21.67C14.2959 22.704 15.0259 24.998 16.8119 24.998H16.9999V35.678C15.7979 36.45 14.9999 37.798 14.9999 39.332V41.998C14.9999 42.2633 15.1053 42.5176 15.2928 42.7052C15.4804 42.8927 15.7347 42.998 15.9999 42.998H42C42.2652 42.998 42.5195 42.8927 42.7071 42.7052C42.8946 42.5176 43 42.2633 43 41.998V39.332C43 37.798 42.2039 36.45 41 35.68ZM28.6119 14.998C28.7241 14.9175 28.8588 14.8741 28.9969 14.8741C29.1351 14.8741 29.2697 14.9175 29.3819 14.998L40.66 22.998H17.3359L28.6119 14.998ZM38.996 24.998V35.01C38.8855 35.0014 38.7747 34.9974 38.6639 34.998H34.9959V25L38.996 24.998ZM18.9999 35.01V25H22.9999V35H19.3319C19.2199 35 19.1086 35.004 18.9979 35.012M19.3319 37H38.6659C39.9539 37 40.9979 38.044 40.9979 39.334V41H16.9999V39.334C16.9999 38.044 18.0439 37 19.3319 37ZM27.9999 35H24.9999V25H27.9999V35ZM29.9999 35V25H32.9999V35H29.9999Z" fill="#050B1A"/>
</svg>
