<svg width="58" height="58" viewBox="0 0 58 58" fill="none" xmlns="http://www.w3.org/2000/svg">
<circle cx="29" cy="29" r="29" fill="#F5B329"/>
<path d="M29.0003 44.6417V42.975H39.642C39.9409 42.975 40.1864 42.8783 40.3787 42.685C40.5709 42.4939 40.667 42.2483 40.667 41.9483V40.6667H35.5387V30.41H40.667V27.3333C40.667 24.1111 39.5281 21.3611 37.2503 19.0833C34.9725 16.8056 32.2225 15.6667 29.0003 15.6667C25.7781 15.6667 23.0281 16.8056 20.7503 19.0833C18.4725 21.3611 17.3337 24.1111 17.3337 27.3333V30.41H22.462V40.6667H18.3603C17.5925 40.6667 16.952 40.41 16.4387 39.8967C15.9253 39.3833 15.6681 38.7422 15.667 37.9733V27.3333C15.667 25.4911 16.0148 23.7617 16.7103 22.145C17.4059 20.5283 18.3592 19.1144 19.5703 17.9033C20.7814 16.6922 22.1959 15.7389 23.8137 15.0433C25.4314 14.3478 27.1603 14 29.0003 14C30.8403 14 32.5698 14.3478 34.1887 15.0433C35.8075 15.7389 37.2214 16.6922 38.4303 17.9033C39.6392 19.1144 40.5925 20.5289 41.2903 22.1467C41.9881 23.7644 42.3359 25.4933 42.3337 27.3333V41.95C42.3337 42.7167 42.077 43.3567 41.5637 43.87C41.0492 44.3844 40.4087 44.6417 39.642 44.6417H29.0003Z" fill="#050B1A"/>
</svg>
