<svg width="58" height="58" viewBox="0 0 58 58" fill="none" xmlns="http://www.w3.org/2000/svg">
<circle cx="29" cy="29" r="29" fill="#F5B329"/>
<path d="M25.347 42.3333V34.705C23.6837 34.5806 22.0537 34.4056 20.457 34.18C18.8603 33.9556 17.2637 33.6389 15.667 33.23L16.0503 31.5633C18.1648 32.0967 20.2992 32.4756 22.4537 32.7C24.6081 32.9244 26.7881 33.0372 28.9937 33.0383C31.1737 33.0383 33.3425 32.9256 35.5003 32.7C37.6581 32.4744 39.8081 32.0956 41.9503 31.5633L42.3337 33.23C40.7314 33.6389 39.1253 33.9572 37.5153 34.185C35.9042 34.4139 34.2837 34.5917 32.6537 34.7183V42.3333H25.347ZM29.0053 30.3467C28.2075 30.3467 27.537 30.0772 26.9937 29.5383C26.4514 28.9994 26.1803 28.3317 26.1803 27.535C26.1803 26.7617 26.4498 26.0967 26.9887 25.54C27.5275 24.9833 28.1953 24.705 28.992 24.705C29.7653 24.705 30.4298 24.9811 30.9853 25.5333C31.542 26.0844 31.8203 26.7472 31.8203 27.5217C31.8203 28.3194 31.5448 28.9894 30.9937 29.5317C30.4425 30.0739 29.7798 30.3456 29.0053 30.3467ZM17.3337 25.6667C16.867 25.6667 16.4725 25.5056 16.1503 25.1833C15.8281 24.8611 15.667 24.4639 15.667 23.9917C15.667 23.5383 15.8281 23.1483 16.1503 22.8217C16.4725 22.4961 16.8703 22.3333 17.3437 22.3333C17.7981 22.3333 18.1881 22.4956 18.5137 22.82C18.8381 23.1433 19.0003 23.5367 19.0003 24C19.0003 24.4667 18.8381 24.8611 18.5137 25.1833C18.1903 25.5056 17.797 25.6667 17.3337 25.6667ZM40.667 25.6667C40.2003 25.6667 39.8059 25.5056 39.4837 25.1833C39.1614 24.8611 39.0003 24.4639 39.0003 23.9917C39.0003 23.5383 39.1614 23.1483 39.4837 22.8217C39.8059 22.4961 40.2031 22.3333 40.6753 22.3333C41.1298 22.3333 41.5198 22.4956 41.8453 22.82C42.1709 23.1433 42.3337 23.5367 42.3337 24C42.3337 24.4667 42.1714 24.8611 41.847 25.1833C41.5237 25.5056 41.1303 25.6667 40.667 25.6667ZM21.4037 19.5767C20.9381 19.5767 20.5437 19.4156 20.2203 19.0933C19.8981 18.7711 19.737 18.3739 19.737 17.9017C19.737 17.4483 19.8981 17.0589 20.2203 16.7333C20.5437 16.4067 20.9414 16.2433 21.4137 16.2433C21.867 16.2433 22.2564 16.4056 22.582 16.73C22.9075 17.0544 23.0703 17.4478 23.0703 17.91C23.0703 18.3767 22.9087 18.7711 22.5853 19.0933C22.2609 19.4156 21.867 19.5767 21.4037 19.5767ZM36.597 19.5767C36.1303 19.5767 35.7359 19.4156 35.4137 19.0933C35.0914 18.7711 34.9303 18.3739 34.9303 17.9017C34.9303 17.4483 35.0914 17.0589 35.4137 16.7333C35.7359 16.4067 36.1331 16.2433 36.6053 16.2433C37.0587 16.2433 37.4487 16.4056 37.7753 16.73C38.1009 17.0544 38.2637 17.4478 38.2637 17.91C38.2637 18.3767 38.1014 18.7711 37.777 19.0933C37.4525 19.4156 37.0592 19.5767 36.597 19.5767ZM29.0003 17.3333C28.5337 17.3333 28.1392 17.1722 27.817 16.85C27.4948 16.5278 27.3337 16.1306 27.3337 15.6583C27.3337 15.2039 27.4948 14.8139 27.817 14.4883C28.1392 14.1628 28.537 14 29.0103 14C29.4637 14 29.8537 14.1622 30.1803 14.4867C30.5048 14.81 30.667 15.2033 30.667 15.6667C30.667 16.1333 30.5048 16.5278 30.1803 16.85C29.857 17.1722 29.4637 17.3333 29.0003 17.3333Z" fill="#050B1A"/>
</svg>
