<svg width="58" height="58" viewBox="0 0 58 58" fill="none" xmlns="http://www.w3.org/2000/svg">
<circle cx="29" cy="29" r="29" fill="#F5B329"/>
<path d="M23.4864 27.7499V21.4999C23.4864 21.1266 23.6175 20.8088 23.8797 20.5466C24.1408 20.2843 24.4586 20.1532 24.833 20.1532C25.2075 20.1532 25.5252 20.2843 25.7864 20.5466C26.0486 20.8088 26.1797 21.1266 26.1797 21.4999V27.7499C26.1797 28.1244 26.0486 28.4421 25.7864 28.7032C25.5241 28.9655 25.2064 29.0966 24.833 29.0966C24.4597 29.0966 24.1419 28.9655 23.8797 28.7032C23.6175 28.441 23.4864 28.1232 23.4864 27.7499ZM30.7314 29.9066V14.8332C30.7314 14.4599 30.8619 14.1421 31.123 13.8799C31.3852 13.6177 31.703 13.4866 32.0764 13.4866C32.4508 13.4866 32.7686 13.6177 33.0297 13.8799C33.2919 14.1421 33.423 14.4599 33.423 14.8332V29.9066C33.423 30.3555 33.2852 30.6921 33.0097 30.9166C32.733 31.141 32.4236 31.2532 32.0814 31.2532C31.7391 31.2532 31.428 31.141 31.148 30.9166C30.868 30.6921 30.7291 30.3555 30.7314 29.9066ZM16.1797 33.4766V28.1666C16.1797 27.7932 16.3102 27.4755 16.5714 27.2132C16.8336 26.951 17.1519 26.8199 17.5264 26.8199C17.9008 26.8199 18.2186 26.951 18.4797 27.2132C18.7408 27.4755 18.8714 27.7932 18.8714 28.1666V33.4782C18.8714 33.9271 18.7336 34.2632 18.458 34.4866C18.1825 34.711 17.873 34.8232 17.5297 34.8232C17.1875 34.8232 16.8764 34.711 16.5964 34.4866C16.3186 34.2632 16.1797 33.9271 16.1797 33.4782M17.988 43.2499C17.6158 43.2499 17.3586 43.0805 17.2164 42.7416C17.0741 42.4038 17.1386 42.0988 17.4097 41.8266L23.923 35.3149C24.1641 35.0727 24.4614 34.9377 24.8147 34.9099C25.168 34.8821 25.4819 34.9894 25.7564 35.2316L30.7314 39.5066L41.9864 28.2499H38.9997C38.763 28.2499 38.5652 28.1699 38.4064 28.0099C38.2475 27.8499 38.1675 27.6516 38.1664 27.4149C38.1652 27.1782 38.2452 26.9805 38.4064 26.8216C38.5675 26.6627 38.7652 26.5832 38.9997 26.5832H43.4864C43.8686 26.5832 44.1886 26.7121 44.4464 26.9699C44.7041 27.2277 44.833 27.5477 44.833 27.9299V32.4166C44.833 32.6532 44.753 32.851 44.593 33.0099C44.433 33.1688 44.2347 33.2488 43.998 33.2499C43.7614 33.251 43.5636 33.171 43.4047 33.0099C43.2458 32.8488 43.1664 32.651 43.1664 32.4166V29.4299L31.6597 40.9366C31.4186 41.1777 31.1214 41.3121 30.768 41.3399C30.4147 41.3677 30.1008 41.2605 29.8264 41.0182L24.8514 36.7432L18.5897 43.0066C18.5186 43.0732 18.4291 43.1305 18.3214 43.1782C18.2136 43.226 18.1025 43.2499 17.988 43.2499Z" fill="#050B1A"/>
</svg>
